<?xml version="1.0" standalone="no"?>
<!DOCTYPE svg PUBLIC "-//W3C//DTD SVG 20010904//EN"
 "http://www.w3.org/TR/2001/REC-SVG-20010904/DTD/svg10.dtd">
<svg version="1.0" xmlns="http://www.w3.org/2000/svg"
 width="300.000000pt" height="300.000000pt" viewBox="0 0 300.000000 300.000000"
 preserveAspectRatio="xMidYMid meet">

<g transform="translate(0.000000,300.000000) scale(0.100000,-0.100000)"
fill="#0047FF" stroke="none">
<path d="M1360 2993 c-173 -17 -371 -73 -521 -148 -424 -210 -715 -587 -816
-1056 -26 -121 -26 -468 1 -589 66 -302 196 -541 416 -760 234 -235 488 -368
805 -422 102 -17 147 -19 300 -15 194 6 310 26 465 82 61 23 185 79 198 90 2
2 -106 151 -240 331 -134 181 -378 528 -543 772 l-300 444 -5 -447 c-6 -509 1
-475 -95 -475 -91 0 -85 -47 -85 628 0 524 2 592 16 606 16 17 128 23 150 8
14 -9 23 -23 657 -982 296 -448 542 -817 547 -818 6 -2 34 14 63 35 313 229
524 558 599 935 31 158 31 427 0 574 -66 311 -195 548 -416 770 -207 207 -420
328 -700 399 -131 33 -364 51 -496 38z m664 -919 c14 -14 16 -76 16 -540 0
-288 -2 -524 -4 -524 -2 0 -43 60 -90 134 l-86 133 0 388 c0 449 -5 425 91
425 39 0 63 -5 73 -16z"/>
</g>
</svg>
