<?xml version="1.0" standalone="no"?>
<!DOCTYPE svg PUBLIC "-//W3C//DTD SVG 20010904//EN"
 "http://www.w3.org/TR/2001/REC-SVG-20010904/DTD/svg10.dtd">
<svg version="1.0" xmlns="http://www.w3.org/2000/svg"
 width="2069.000000pt" height="1002.000000pt" viewBox="0 0 2069.000000 1002.000000"
 preserveAspectRatio="xMidYMid meet">

<g transform="translate(0.000000,1002.000000) scale(0.100000,-0.100000)"
fill="#000000" stroke="none">
<path d="M2630 4400 l0 -3000 3000 0 3000 0 0 3000 0 3000 -3000 0 -3000 0 0
-3000z m3220 418 c386 -835 468 -1022 555 -1265 l58 -162 33 98 c82 245 149
396 598 1351 l346 735 345 3 345 2 0 -1730 0 -1730 -330 0 -330 0 0 1068 -1
1067 -43 -115 c-52 -137 -58 -152 -414 -955 l-278 -630 -264 0 -264 0 -288
640 c-305 677 -358 800 -419 960 l-38 100 -1 -1067 0 -1068 -330 0 -330 0 0
54 0 54 -97 12 c-109 13 -221 35 -230 44 -7 6 36 176 48 190 4 5 46 2 96 -7
146 -26 183 -29 183 -18 0 6 -17 11 -37 11 -46 0 -204 28 -223 40 -11 7 -11
18 3 67 9 32 21 76 26 99 l11 41 60 -13 c106 -22 160 -27 160 -15 0 6 -1 11
-2 11 -2 1 -37 8 -78 16 -41 8 -86 16 -100 18 -18 2 -24 8 -22 22 2 10 8 20
12 22 5 2 6 10 3 19 -5 12 -1 14 15 8 16 -5 22 -2 22 9 0 9 -7 16 -15 16 -9 0
-14 7 -12 18 19 94 17 91 51 86 17 -3 38 -8 46 -11 8 -3 30 -6 48 -8 l32 -2 0
1339 0 1338 349 0 348 0 353 -762z m-2048 105 l67 -66 -48 -56 c-55 -64 -111
-143 -135 -189 -9 -18 -21 -32 -27 -32 -15 0 -169 92 -169 100 0 25 220 310
239 310 3 0 36 -30 73 -67z m-242 -309 c44 -25 83 -50 86 -55 3 -6 -12 -47
-34 -92 -22 -45 -52 -117 -67 -159 -15 -43 -32 -78 -38 -78 -6 0 -52 12 -103
26 l-92 26 18 57 c34 112 130 321 146 321 3 0 41 -21 84 -46z m231 -138 l67
-36 -28 -53 c-16 -28 -41 -86 -56 -127 -15 -41 -30 -78 -33 -82 -6 -7 -187 35
-198 46 -10 9 36 140 82 234 l45 93 27 -19 c16 -10 58 -36 94 -56z m-281 -276
c0 -8 -6 -49 -14 -90 -8 -41 -18 -114 -22 -162 l-7 -88 -105 0 -105 0 6 113
c4 92 25 230 42 283 6 18 205 -37 205 -56z m224 -51 c3 -3 -1 -37 -9 -75 -8
-38 -15 -96 -15 -129 0 -33 -4 -66 -8 -73 -6 -9 -36 -12 -113 -10 l-104 3 3
60 c4 73 20 197 33 246 l9 37 99 -27 c55 -14 102 -29 105 -32z m136 -34 c94
-22 94 -23 81 -84 -6 -29 -11 -77 -11 -106 l0 -55 -110 0 -110 0 0 33 c0 38
17 147 31 200 9 34 13 38 32 33 12 -3 51 -13 87 -21z m-396 -352 c4 -49 15
-129 25 -179 l17 -92 -99 -26 c-55 -15 -103 -23 -108 -19 -14 14 -49 244 -49
324 l0 79 104 0 103 0 7 -87z m230 56 c3 -17 6 -49 6 -71 0 -21 7 -73 16 -114
8 -42 14 -77 12 -79 -2 -2 -48 -15 -102 -30 -77 -20 -101 -23 -107 -13 -17 26
-53 313 -42 331 2 4 51 7 107 7 l104 0 6 -31z m236 -34 c0 -29 5 -77 11 -105
6 -30 7 -56 2 -61 -4 -4 -50 -19 -101 -32 l-92 -24 -10 36 c-14 54 -30 161
-30 204 l0 37 110 0 110 0 0 -55z m63 -287 c20 -51 38 -97 40 -101 2 -8 -159
-106 -174 -107 -11 0 -99 213 -99 240 0 9 10 16 23 18 12 1 47 10 77 21 92 33
91 33 133 -71z m-239 -19 c10 -33 34 -93 53 -132 33 -68 33 -72 16 -85 -25
-18 -159 -92 -167 -92 -18 0 -139 302 -125 313 3 3 151 44 199 56 3 0 14 -26
24 -60z m-215 -85 c15 -44 44 -115 65 -158 21 -43 36 -79 34 -81 -2 -2 -42
-26 -90 -54 l-88 -50 -26 45 c-34 58 -114 254 -121 297 l-5 34 93 25 c52 15
98 25 102 24 5 -1 21 -38 36 -82z m524 -61 c-4 -10 -2 -14 4 -10 6 4 17 -1 24
-11 13 -15 12 -16 -3 -3 -10 7 -18 11 -18 8 0 -3 -3 -13 -7 -23 -5 -14 -2 -16
21 -12 22 4 26 2 21 -13 -5 -14 -2 -17 14 -14 20 4 25 -5 22 -32 -1 -7 7 -13
18 -13 35 0 34 -20 -6 -60 -23 -25 -47 -40 -62 -40 -19 0 -21 -3 -12 -14 9
-10 8 -16 -4 -26 -13 -11 -14 -10 -10 2 4 11 -2 15 -24 15 -27 0 -28 -2 -13
-13 9 -8 12 -14 6 -14 -14 0 -36 25 -32 36 2 5 0 9 -3 9 -3 0 -13 6 -23 14
-12 10 -14 17 -5 27 9 11 7 14 -9 14 -11 0 -26 8 -33 18 -13 15 -12 16 4 3 15
-12 17 -11 17 3 0 9 -5 16 -11 16 -5 0 -7 5 -4 10 3 6 -1 10 -9 10 -9 0 -16
-6 -16 -12 -1 -7 -7 2 -15 21 -19 43 -19 53 1 21 l15 -25 -4 27 c-4 28 4 40
36 51 25 9 21 -2 -5 -13 -21 -8 -20 -9 10 -9 21 -1 32 4 33 14 3 35 5 40 17
38 7 -2 12 1 12 6 0 11 29 19 47 13 6 -2 9 -11 6 -19z m-174 -130 c19 -32 59
-85 88 -120 l53 -62 -63 -63 c-102 -102 -84 -103 -179 16 -89 111 -129 177
-113 183 6 2 46 26 90 53 44 27 82 49 85 49 3 0 21 -25 39 -56z m361 -68 c13
-14 20 -25 16 -25 -5 0 -3 -7 4 -15 7 -9 19 -14 26 -11 6 2 20 -3 30 -13 11
-9 27 -20 37 -24 9 -3 17 -14 17 -24 0 -15 -2 -16 -10 -3 -8 12 -10 11 -10 -6
0 -12 -7 -25 -16 -28 -10 -4 -13 -13 -9 -25 4 -13 -4 -29 -27 -52 -18 -18 -27
-30 -21 -25 9 5 11 2 6 -10 -4 -11 -8 -13 -11 -6 -2 7 -9 9 -14 6 -7 -5 -8 -2
-3 6 5 9 2 10 -12 6 -13 -4 -25 0 -34 11 -13 17 -13 17 5 3 17 -13 19 -13 14
0 -3 8 -14 15 -25 15 -23 0 -38 11 -38 28 0 6 -10 14 -23 17 -13 3 -23 10 -23
15 1 6 -6 10 -14 10 -8 0 -22 7 -30 16 -14 14 -14 16 -1 16 8 0 12 -5 9 -10
-3 -6 -1 -7 6 -3 6 4 9 12 5 17 -6 11 40 59 57 59 5 0 9 7 9 15 0 8 7 15 15
15 13 0 20 18 16 43 -2 16 27 6 49 -18z m-69 -8 c-10 -9 -11 -8 -5 6 3 10 9
15 12 12 3 -3 0 -11 -7 -18z m-480 -60 c26 -40 74 -104 107 -143 l60 -71 -74
-74 c-64 -63 -76 -71 -87 -59 -127 138 -246 305 -230 321 15 15 157 98 168 98
6 0 31 -32 56 -72z m454 33 c-3 -5 -11 -10 -16 -10 -6 0 -7 5 -4 10 3 6 11 10
16 10 6 0 7 -4 4 -10z m286 -101 c16 -11 29 -17 29 -12 0 4 6 1 13 -8 13 -16
52 -35 43 -20 -10 16 30 0 56 -23 25 -20 25 -23 12 -55 -9 -21 -18 -30 -26
-25 -8 5 -9 2 -5 -10 11 -28 -4 -106 -20 -106 -8 0 -11 5 -7 12 5 8 2 9 -9 5
-11 -4 -17 -1 -17 8 0 8 -8 15 -17 15 -15 0 -16 -2 -3 -10 20 -13 7 -12 -27 2
-15 6 -31 11 -34 10 -4 -1 -5 8 -2 18 5 18 0 20 -46 20 -33 0 -50 4 -46 10 3
6 0 13 -9 16 -9 3 -12 12 -9 22 6 13 8 13 14 -4 6 -16 8 -16 8 -2 1 9 10 20
21 23 15 5 20 15 20 41 0 24 5 34 15 34 8 0 15 8 14 18 0 10 -3 12 -6 5 -2 -7
-9 -13 -14 -13 -5 0 -3 11 3 25 14 30 13 30 49 4z m-246 -114 c39 -27 72 -50
74 -51 4 -3 -71 -139 -92 -168 -13 -18 -16 -18 -73 19 -32 22 -94 68 -137 104
l-78 65 53 54 c29 31 64 65 78 78 l25 22 40 -37 c22 -20 72 -59 110 -86z
m-242 -104 c40 -32 101 -78 137 -102 36 -23 67 -44 68 -45 2 -1 -20 -43 -49
-93 l-53 -91 -45 27 c-65 38 -220 155 -256 192 l-29 31 69 70 c38 39 73 70 78
70 5 0 41 -26 80 -59z m390 12 c29 -14 86 -38 127 -53 41 -16 76 -34 78 -41 1
-8 -8 -52 -21 -99 -23 -83 -25 -85 -53 -83 -61 5 -291 107 -287 128 1 11 96
175 101 175 1 0 26 -12 55 -27z m62 7 c3 -6 -1 -7 -9 -4 -18 7 -21 14 -7 14 6
0 13 -4 16 -10z m-134 -224 c52 -24 125 -53 162 -66 40 -13 67 -27 64 -34 -2
-6 -15 -50 -28 -98 -14 -54 -29 -88 -37 -88 -39 0 -362 139 -362 156 0 11 95
174 101 174 3 0 48 -20 100 -44z"/>
<path d="M4700 2900 c0 -5 5 -10 10 -10 6 0 10 5 10 10 0 6 -4 10 -10 10 -5 0
-10 -4 -10 -10z"/>
<path d="M4776 2715 c4 -8 10 -15 15 -15 5 0 9 7 9 15 0 8 -7 15 -15 15 -9 0
-12 -6 -9 -15z"/>
<path d="M4160 3190 c-8 -5 -12 -11 -9 -14 3 -3 14 1 25 9 21 16 8 20 -16 5z"/>
<path d="M4117 3153 c-4 -3 -7 -12 -7 -20 0 -11 4 -11 20 -1 11 7 20 16 20 20
0 10 -24 10 -33 1z"/>
<path d="M4315 3060 c3 -5 11 -10 16 -10 6 0 7 5 4 10 -3 6 -11 10 -16 10 -6
0 -7 -4 -4 -10z"/>
<path d="M4303 2940 c4 -25 17 -38 17 -17 0 10 5 17 10 17 6 0 10 5 10 10 0 6
-9 10 -20 10 -14 0 -19 -6 -17 -20z"/>
</g>
</svg>
